<svg style="display: none;" xmlns="http://www.w3.org/2000/svg">
  <!-- Brasil -->
  <symbol id="flag-br" viewBox="0 0 20 14">
    <rect width="20" height="14" fill="#009739"/>
    <path d="M10 7 L0 14 L20 14 Z" fill="#FEDD00"/>
    <circle cx="10" cy="7" r="3" fill="#012169"/>
    <path d="M10 4 L10.5 5.5 L12 5.5 L10.75 6.5 L11.25 8 L10 7 L8.75 8 L9.25 6.5 L8 5.5 L9.5 5.5 Z" fill="#FEDD00"/>
  </symbol>
  
  <!-- Espanha -->
  <symbol id="flag-es" viewBox="0 0 20 14">
    <rect width="20" height="3.5" fill="#AA151B"/>
    <rect y="3.5" width="20" height="3.5" fill="#F1BF00"/>
    <rect y="7" width="20" height="3.5" fill="#AA151B"/>
    <rect y="10.5" width="20" height="3.5" fill="#F1BF00"/>
    <rect width="6" height="14" fill="#AA151B"/>
  </symbol>
  
  <!-- Estados Unidos -->
  <symbol id="flag-us" viewBox="0 0 20 14">
    <!-- Listras -->
    <rect width="20" height="1" fill="#B22234"/>
    <rect y="1" width="20" height="1" fill="white"/>
    <rect y="2" width="20" height="1" fill="#B22234"/>
    <rect y="3" width="20" height="1" fill="white"/>
    <rect y="4" width="20" height="1" fill="#B22234"/>
    <rect y="5" width="20" height="1" fill="white"/>
    <rect y="6" width="20" height="1" fill="#B22234"/>
    <rect y="7" width="20" height="1" fill="white"/>
    <rect y="8" width="20" height="1" fill="#B22234"/>
    <rect y="9" width="20" height="1" fill="white"/>
    <rect y="10" width="20" height="1" fill="#B22234"/>
    <rect y="11" width="20" height="1" fill="white"/>
    <rect y="12" width="20" height="1" fill="#B22234"/>
    <!-- Canto azul -->
    <rect width="8" height="7.5" fill="#002868"/>
    <!-- Estrelas simplificadas -->
    <circle cx="2" cy="1.5" r="0.3" fill="white"/>
    <circle cx="4" cy="1.5" r="0.3" fill="white"/>
    <circle cx="6" cy="1.5" r="0.3" fill="white"/>
    <circle cx="3" cy="2.5" r="0.3" fill="white"/>
    <circle cx="5" cy="2.5" r="0.3" fill="white"/>
    <circle cx="2" cy="3.5" r="0.3" fill="white"/>
    <circle cx="4" cy="3.5" r="0.3" fill="white"/>
    <circle cx="6" cy="3.5" r="0.3" fill="white"/>
    <circle cx="3" cy="4.5" r="0.3" fill="white"/>
    <circle cx="5" cy="4.5" r="0.3" fill="white"/>
    <circle cx="2" cy="5.5" r="0.3" fill="white"/>
    <circle cx="4" cy="5.5" r="0.3" fill="white"/>
    <circle cx="6" cy="5.5" r="0.3" fill="white"/>
  </symbol>
</svg>

